<?xml version="1.0" encoding="utf-8"?>
<!-- Generator: Adobe Illustrator 18.0.0, SVG Export Plug-In . SVG Version: 6.00 Build 0)  -->
<!DOCTYPE svg PUBLIC "-//W3C//DTD SVG 1.1//EN" "http://www.w3.org/Graphics/SVG/1.1/DTD/svg11.dtd">
<svg version="1.1" id="Capa_1" xmlns="http://www.w3.org/2000/svg" xmlns:xlink="http://www.w3.org/1999/xlink" x="0px" y="0px"
	 viewBox="0 0 425.2 80.4" enable-background="new 0 0 425.2 80.4" xml:space="preserve">
<path fill-rule="evenodd" clip-rule="evenodd" fill="#F4DA85" d="M195.1,0c0.2,0,0.2,0,0.4,0c0.2,0,0.6,0,1.4,0c0.9,0,2.3,0,40.4,0
	c38.1,0,113,0,150.4,0c37.4,0,37.4,0,37.4,0s0,0,0,13.4c0,13.4,0,40.2,0,53.6c0,13.4,0,13.4,0,13.4s0,0-16-0.4
	c-16-0.4-48-1.2-75.8-4.2c-27.8-3-51.4-8.1-73.9-21.1c-22.5-13-43.9-33.8-54.4-44.3C194.6,0,194.9,0,195.1,0z"/>
<path fill-rule="evenodd" clip-rule="evenodd" fill="#8AC4B1" d="M314.3,0c-0.2,0-0.4,0-0.6,0c-0.2,0-0.4,0-2.1,0c-1.7,0-4.8,0-57,0
	c-52.2,0-153.4,0-204,0C0,0,0,0,0,0l0,0c0,0,0,0,0,12.7c0,12.7,0,38.1,0,50.8c0,12.7,0,12.7,0,12.7s0,0,19.4,0.8
	c19.4,0.8,58.3,2.4,88.2-3.2c29.9-5.6,50.9-18.3,72.7-25.8c21.8-7.6,44.3-9.9,66-11.9c21.7-2,42.7-3.6,53.6-7
	c10.9-3.4,11.6-8.5,12.4-13.7c0.8-5.2,1.5-10.3,1.8-12.9C314.5,0,314.5,0,314.3,0z"/>
<g>
</g>
<g>
</g>
<g>
</g>
<g>
</g>
<g>
</g>
<g>
</g>
<g>
</g>
<g>
</g>
<g>
</g>
<g>
</g>
<g>
</g>
<g>
</g>
<g>
</g>
<g>
</g>
<g>
</g>
</svg>
