<?xml version="1.0" encoding="utf-8"?>
<!-- Generator: Adobe Illustrator 18.0.0, SVG Export Plug-In . SVG Version: 6.00 Build 0)  -->
<!DOCTYPE svg PUBLIC "-//W3C//DTD SVG 1.1//EN" "http://www.w3.org/Graphics/SVG/1.1/DTD/svg11.dtd">
<svg version="1.1" id="Capa_1" xmlns="http://www.w3.org/2000/svg" xmlns:xlink="http://www.w3.org/1999/xlink" x="0px" y="0px"
	 viewBox="0 0 425.2 121.6" enable-background="new 0 0 425.2 121.6" xml:space="preserve">
<path fill-rule="evenodd" clip-rule="evenodd" fill="#F4DA85" d="M415.4,9.4c-9.8-5.8-29.4-12.6-43.3-7.7
	c-14,4.9-22.4,21.5-35.9,28.2c-13.6,6.7-32.3,3.5-53.4,3.4c-21.1-0.1-44.5,2.9-53,12.6c-8.5,9.7-2.1,26.1-3.8,39.8
	c-1.7,13.7-11.6,24.7-16.3,30.2c-4.7,5.5-4.2,5.5-3.9,5.5c0.2,0,0.2,0,36.8,0s109.7,0,146.2,0s36.6,0,36.6,0s0,0,0-16.1
	c0-16.1,0-48.3,0-66.8S425.2,15.2,415.4,9.4z"/>
<g>
	<path fill-rule="evenodd" clip-rule="evenodd" fill="#8AC4B1" d="M147.4,79.4c0.4,5.5-1.9,4.9-2.3,5c-2.5-2.4-1.2-11.2-2.3-19.8
		c-1.2-9.8-5.3-16.7-2.3-17.8c3.6-1,4.4,6.6,4.3,9.1c0.1-0.1,0.2-0.4,0.2-0.5c0-0.1,0.2-0.4,0.2-0.5c1.3-2.5-0.8-1.2,2.3-3.1
		c3.1,2.9,3.1,7.8,3.2,12.7c0.3,11.2,0.7,7.7,1.4,13.7c-3.9,3.1-2.5-0.8-4.1,1.1C147.9,79.6,147.6,79.4,147.4,79.4z"/>
	<path fill-rule="evenodd" clip-rule="evenodd" fill="#8AC4B1" d="M105.3,68.5c2.1-4.7,4.4-12.7,10.2-10.9c6,1.8-2.3,6.9-4,8.9
		c3.6-2.1,6.2-3,10.6-6.1c4.8-3.4,2.9-2.8,8.5-1.6c2.8,0.6-0.4-1.7,3.4,1.1c-2.1,4.1-4.2,2.1-12,7.9c-4.8,3.6-7.2,4.9-12.2,7.9
		L105.3,68.5z"/>
	<path fill-rule="evenodd" clip-rule="evenodd" fill="#8AC4B1" d="M19.3,99.4c3.5-2,6.4,1.2,9.8,3.3c8.7,5.4,0.9-4.4,14.7,10.5
		c2.9,3.1,5.4,4.6,4.5,8.4h-1.7c-1.8-0.3-1.2-1-3.7-3l0.4,3h-3.6c-1.1-0.9-1.7-2.2-2.7-3.5c-2.4-3.2-4.6-3.6-6.4-5.7
		c-4.9-5.7,4-1.4-3.3-6.8C23.6,102.9,20.5,103.7,19.3,99.4z"/>
	<path fill-rule="evenodd" clip-rule="evenodd" fill="#8AC4B1" d="M0.5,104.1c2.2,0.8,1.1,1.6,3.2,2.1c2.3,0.6-1.2-2.9,3.6,0.4
		c-0.5,4-3.6,10.3-7.1,14.9H0v-17C0.2,104.5,0.3,104.3,0.5,104.1z"/>
	<path fill-rule="evenodd" clip-rule="evenodd" fill="#8AC4B1" d="M65.2,63.8l8.1-1.4c5.9,4.4,3.1,4.5,5.1,10.3
		c1.5,4.5,3.9,7,2.1,10.8c-6-0.3,1.6,0.7-5.1-2.4c-2.4-1.1-3.7-3.9-6-7.8L65.2,63.8z"/>
	<path fill-rule="evenodd" clip-rule="evenodd" fill="#8AC4B1" d="M88.5,85.4c5.4-0.1-0.5-0.3,3.4,1.9c3.6,2,6.4-3.7,13.2-1.8
		c0.8,9.2-13.6,13.2-19.7,10.7C85.2,92.6,86.2,88.1,88.5,85.4z"/>
	<path fill-rule="evenodd" clip-rule="evenodd" fill="#8AC4B1" d="M1.3,76.5c2.8-3.2,13-5.5,18.1-8.2l6,5.2c-1.7,3.1-2,2.2-5.1,2.9
		c-7.4,1.7-11.5,6.9-18.9,3.4L1.3,76.5z"/>
	<path fill-rule="evenodd" clip-rule="evenodd" fill="#8AC4B1" d="M4.4,28.4c4.8,2.6,2.6-0.6,2.3,4.7c2.6-2.7,2.3-3.2,5.6-2.6
		c0.3,1.6-0.8,4.2-1.5,5.5c-1.4,2.4-2.6,2.6-4.9,3.7c-3.1,1.5-4.4,2.9-5.9,3.7V32.8C1.4,31.4,2.9,30,4.4,28.4z"/>
	<path fill-rule="evenodd" clip-rule="evenodd" fill="#8AC4B1" d="M128.3,95.5c4.3,0.6,0.4,0,2.9-0.4c1.7-0.3,0.5-0.7,2.9-0.3
		c0.7,4.5-2.5,17-5.4,20.8c-2.8-1.5-2.7-2.7-1.8-5.3l-4.1,6.6c-4-3-0.9-4.6,1.2-9.2C126,103.4,126.4,99.8,128.3,95.5z"/>
	<path fill-rule="evenodd" clip-rule="evenodd" fill="#8AC4B1" d="M21.9,53.3c4-5.2,1.4,2,4.8-3.5c2.6-4.1-2.1-0.9,1.6-5.9
		c3.4,1.3,12.2,10.4,12.8,12.6C37.8,59.1,23.5,58.8,21.9,53.3z"/>
	<path fill-rule="evenodd" clip-rule="evenodd" fill="#8AC4B1" d="M65.3,117.4c9.8,0,0.6-2.8,7.6-0.6c-0.2,1.1-0.8,2.8-1.7,4.8H64
		L65.3,117.4z"/>
	<path fill-rule="evenodd" clip-rule="evenodd" fill="#8AC4B1" d="M65.3,34.1c-1.4,4.5-3.7,5.5-6.7,9.1c-5.7,6.7-3.7,5.9-7.5,6.4
		c-0.4-2.1-0.6-0.2,0.1-2.6c0.9-3.1-0.6,0.9,0.7-1.5c0.3-0.5,1.8-2.1,2.1-2.5l-0.7-1.3c-3.7-7.9,5.6-10.5,10.2-10.6L65.3,34.1z"/>
	<path fill-rule="evenodd" clip-rule="evenodd" fill="#8AC4B1" d="M94.6,33.4c3.2,4.5,5.9,20.5-4.4,19.8c-1-4.1,2-2.1,0.1-10.3
		c-1-4-3.4-5.6-3.1-9c2.3-0.7,3,0.5,4,0.4C92.9,34.1,92.4,33.3,94.6,33.4z"/>
	<path fill-rule="evenodd" clip-rule="evenodd" fill="#8AC4B1" d="M53.6,14.7c-1.9,4-6.5,6.1-9.8,9.8c-1.6,1.8-2.9,3.2-4.8,5
		c-2.5,2.4-2.3,3.1-5.6,2c0.5-9.1,4.2-8.9,8.8-15.2c4.4,0.5,1.3,2.1,5.1,0.1C50.4,14.6,49.7,13.6,53.6,14.7z"/>
	<path fill-rule="evenodd" clip-rule="evenodd" fill="#8AC4B1" d="M18.1,0.6c2.2,4.6-0.3,1.4,4.8,10.5c2.4,4.3-0.9,9-2.1,9.9
		c-4.7-2.9-2.4-4.9-4.5-9.6c-1.7-3.8-4.6-5.3-5.5-8.9C12.5,1,15.7,0.3,18.1,0.6z"/>
	<path fill-rule="evenodd" clip-rule="evenodd" fill="#8AC4B1" d="M40.2,90.1c1.5-7,0.3,1.2,2.4-5.5c0.4-1.4-0.6,0.5,0.7-2.4
		c3.7,1.5,4.8,2.6,7.3,5.3c1.1,1.2,2.2,2.2,3.2,3.2c3.1,3.3,2.3-0.2,1.5,4.1c-3.5,0.2-3.6-0.2-5.7-3.1l-1.7,3L40.2,90.1z"/>
	<path fill-rule="evenodd" clip-rule="evenodd" fill="#8AC4B1" d="M97.3,110.1c-1.2,4.9-2.6,4.8-5.8,7.6c-3.9,3.4-3.2,3.3-8.7,1.2
		C85.7,113.3,90.7,106.7,97.3,110.1z"/>
</g>
<g>
</g>
<g>
</g>
<g>
</g>
<g>
</g>
<g>
</g>
<g>
</g>
<g>
</g>
<g>
</g>
<g>
</g>
<g>
</g>
<g>
</g>
<g>
</g>
<g>
</g>
<g>
</g>
<g>
</g>
</svg>
